<svg width="170" height="28" viewBox="0 0 170 28" fill="none" xmlns="http://www.w3.org/2000/svg">
<path d="M95.9126 11.1705H92.459V13.6214H95.9126V23.6776H98.5195V6.85535H95.9126V11.1705Z" fill="#231F20"/>
<path d="M88.5744 15.9981C89.124 17.2087 89.8444 18.189 90.7208 18.9095C91.5972 19.6299 92.5627 20.0755 93.6099 20.2389L93.8773 20.276V17.788L93.6916 17.7508C92.5033 17.3795 90.8694 16.3768 90.2306 12.7301C89.9781 11.3339 89.889 9.35826 89.889 7.08559V6.85535H87.2598V7.08559C87.2598 9.35826 87.1707 11.3264 86.9182 12.7301C86.2794 16.3843 84.6455 17.3795 83.4572 17.7508L83.2715 17.788V20.276L83.5389 20.2389C84.5786 20.0755 85.5516 19.6299 86.4206 18.9095C87.2969 18.189 88.0174 17.2087 88.567 15.9981" fill="#231F20"/>
<path d="M113.299 11.861C113.507 11.3857 113.611 10.8732 113.611 10.3385C113.611 8.91248 113.091 7.73901 112.066 6.85519C111.131 6.03821 109.979 5.61487 108.642 5.61487C107.306 5.61487 106.11 6.03078 105.167 6.85519C104.164 7.73158 103.652 8.90505 103.652 10.3385C103.652 10.8584 103.748 11.3634 103.949 11.8536C104.067 12.1581 104.231 12.4478 104.431 12.7226H100.644V14.7576H107.224V15.7602H101.193V17.8175H113.492V18.6122H101.193V21.9173C101.193 22.4817 101.327 22.9051 101.587 23.1799C101.824 23.4324 102.203 23.5586 102.708 23.5586H116.099V21.4419H103.8V20.6324H116.099V15.7677H110.091V14.765H116.656V12.73H112.794C113.002 12.4626 113.173 12.173 113.307 11.8684L113.299 11.861ZM106.905 8.64511C107.365 8.19206 107.93 7.97667 108.635 7.97667C109.341 7.97667 109.89 8.19948 110.351 8.64511C110.811 9.09816 111.034 9.64776 111.034 10.3385C111.034 10.9549 110.811 11.4674 110.351 11.9204C109.875 12.3958 109.318 12.626 108.635 12.626C107.952 12.626 107.365 12.3958 106.905 11.9204C106.452 11.4674 106.236 10.9549 106.236 10.3385C106.236 9.64776 106.452 9.09073 106.905 8.64511Z" fill="#231F20"/>
<path d="M126.371 15.8642C126.861 15.8642 127.233 15.7305 127.47 15.4631C127.738 15.1883 127.864 14.7576 127.864 14.1485V6.88489H125.316V9.06101H121.046V6.88489H118.469V14.1485C118.469 14.7501 118.588 15.1809 118.84 15.4557C119.078 15.7231 119.449 15.8642 119.947 15.8642H126.379H126.371ZM121.046 13.4578V11.408H125.316V13.4578H121.046Z" fill="#231F20"/>
<path d="M133.323 6.88489H130.724V18.3523H133.323V12.8191H135.484V10.3533H133.323V6.88489Z" fill="#231F20"/>
<path d="M121.759 17.4904H119.159V21.8797C119.159 22.4516 119.293 22.8824 119.553 23.1572C119.805 23.4246 120.177 23.5583 120.667 23.5583H133.441V21.1148H121.751V17.4904H121.759Z" fill="#231F20"/>
<path d="M145.755 15.9013H151.452V13.4801H140.111V9.30611H151.452V6.88489H137.497V14.2302C137.497 14.8244 137.615 15.2403 137.868 15.5003C138.106 15.7676 138.484 15.9013 138.989 15.9013H143.215V20.3056H136.509V22.7639H152.462V20.3056H145.755V15.9013Z" fill="#231F20"/>
<path d="M169.597 6.88489H167.072V23.6552H169.597V6.88489Z" fill="#231F20"/>
<path d="M163.662 11.4377H161.501V13.9777H163.662V23.6552H166.165V6.88489H163.662V11.4377Z" fill="#231F20"/>
<path d="M160.669 15.8493C160.09 14.5941 159.771 12.626 159.704 9.98194H162.407V7.53844H159.674V5.97876H157.074V7.53844H154.312V9.98194H157.074C157.015 12.6185 156.681 14.5867 156.094 15.827C155.656 16.7554 155.084 17.2753 154.349 17.4164L154.163 17.4536V20.2461L154.416 20.2239C155.114 20.157 155.804 19.8525 156.48 19.3252C157.26 18.7013 157.899 17.8101 158.389 16.6737C158.879 17.8101 159.518 18.7013 160.298 19.3177C160.944 19.8451 161.62 20.1496 162.311 20.2164L162.563 20.2387V17.4461L162.377 17.409C161.664 17.2679 161.107 16.7554 160.669 15.8419V15.8493Z" fill="#231F20"/>
<path d="M25.1706 12.8932C24.3165 12.8932 23.1133 13.4799 23.1133 15.8343C23.1133 18.1887 24.3165 18.7754 25.1706 18.7754C26.0247 18.7754 27.2279 18.1887 27.2279 15.8343C27.2279 13.4799 26.0247 12.8932 25.1706 12.8932Z" fill="#30AE56"/>
<path d="M37.9968 0C26.3215 0 15.8716 1.93846 8.89761 4.99841C14.2971 3.56499 21.4865 2.43607 28.7427 2.43607C46.3225 2.43607 58.4584 7.50875 58.4584 14.2005C58.4584 19.1321 51.2393 24.4276 40.8191 24.4276C47.2584 22.4891 51.4918 19.8451 51.4918 16.4881C51.4918 10.1825 38.8435 5.74111 23.4546 5.74111C12.418 5.74111 0.935809 7.82812 0 14C0 21.7316 17.0154 28 37.9968 28C58.9782 28 75.9936 21.7316 75.9936 14C75.9936 6.26844 58.9857 0 37.9968 0ZM11.4005 20.2684C8.63024 20.2684 8.15491 18.4934 8.15491 17.4536L9.61061 17.1342C9.6626 17.8918 9.89284 18.8127 11.2817 18.8127C12.0318 18.8127 12.8637 18.5379 12.8637 17.721C12.8637 17.0674 12.3215 16.6737 10.7915 16.2727C9.38037 15.9013 8.22918 15.3517 8.22918 13.6881C8.22918 12.7523 9.0313 11.4005 11.1851 11.4005C13.1607 11.4005 13.948 12.7151 14.1114 13.5172L12.7968 14.0297C12.678 13.6584 12.3438 12.8042 11.1183 12.8042C10.5167 12.8042 9.8557 13.079 9.84085 13.6806C9.82599 14.3491 10.3236 14.6387 11.7496 15.0027C13.2796 15.3963 14.4308 16.035 14.4308 17.5501C14.4308 19.9639 12.069 20.261 11.4005 20.261V20.2684ZM21.0631 20.0456H15.166V11.6233H20.8849V13.0271H16.7777V14.9284H20.5581V16.3321H16.7777V18.6493H21.0631V20.0531V20.0456ZM25.1703 20.2684C24.1676 20.2684 21.531 19.7857 21.531 15.8345C21.531 11.8833 24.1676 11.4005 25.1703 11.4005C26.1729 11.4005 28.8095 11.8833 28.8095 15.8345C28.8095 19.7857 26.1729 20.2684 25.1703 20.2684ZM35.9469 17.4387C35.9469 19.043 34.7438 20.2536 32.7385 20.2536C30.7332 20.2536 29.53 19.043 29.53 17.4387V11.6233H31.1416V17.1862C31.1416 18.07 31.8546 18.7905 32.7385 18.7905C33.6223 18.7905 34.3353 18.07 34.3353 17.1862V11.6233H35.9469V17.4387ZM36.7639 20.0456V11.6233H38.383V18.6048H42.5942V20.0382H36.7639V20.0456Z" fill="#30AE56"/>
</svg>
