<svg width="32" height="32" viewBox="0 0 32 32" fill="none" xmlns="http://www.w3.org/2000/svg">
<path fill-rule="evenodd" clip-rule="evenodd" d="M15.0003 9.80005C14.0065 9.79993 13.0367 10.0881 12.2138 10.6256C11.3912 11.163 10.7534 11.9245 10.3777 12.8113C10.002 13.6978 9.90408 14.6719 10.0951 15.6115C10.2862 16.5513 10.7586 17.4177 11.4562 18.0999C12.154 18.7823 13.0457 19.2495 14.0199 19.439C14.9941 19.6285 16.0037 19.5311 16.92 19.16C17.8362 18.7889 18.6157 18.162 19.1625 17.3619C19.709 16.5621 19.9993 15.6242 19.9993 14.6667C19.9993 13.383 19.4786 12.1476 18.5436 11.2333C17.6076 10.3181 16.3335 9.80005 15.0004 9.80005H15.0003ZM15.0004 7.80005C13.6209 7.79991 12.2706 8.19965 11.1201 8.9512C9.96928 9.70292 9.06885 10.7738 8.53615 12.031C8.00335 13.2885 7.86348 14.6735 8.13525 16.0101C8.40699 17.3464 9.0773 18.5709 10.0578 19.5298C11.0381 20.4884 12.2844 21.1389 13.6379 21.4022C14.9914 21.6655 16.3945 21.5306 17.6708 21.0137C18.9473 20.4968 20.0419 19.6198 20.8137 18.4903C21.5857 17.3606 21.9993 16.0299 21.9993 14.6667C21.9993 12.8386 21.2572 11.0895 19.9419 9.80337C18.6276 8.51821 16.8497 7.80008 15.0005 7.80005" fill="white"/>
<path fill-rule="evenodd" clip-rule="evenodd" d="M19.9842 17.1637L25.4142 22.473L24.016 23.9031L18.5859 18.5937L19.9842 17.1637Z" fill="white"/>
</svg>
