<svg width="374" height="280" viewBox="0 0 374 280" fill="none" xmlns="http://www.w3.org/2000/svg">
<rect width="374" height="280" rx="4" fill="#F2F2F2"/>
<g clip-path="url(#clip0_5597_29308)">
<path d="M74.1 177.771C75.15 178.341 76.29 178.741 77.42 178.741C78.28 178.741 79.45 178.421 79.45 176.951C79.45 174.311 74 174.041 74 168.891C74 165.611 76.2 164.301 78.35 164.301C79.57 164.301 80.79 164.511 81.99 164.801V167.891C80.99 167.421 79.92 167.011 78.85 167.011C78.21 167.011 77.26 167.351 77.26 168.411C77.26 170.871 82.92 171.191 82.92 176.521C82.92 178.171 82.27 181.441 77.9 181.441C76.32 181.441 74.99 181.241 74.09 181.041V177.761L74.1 177.771Z" fill="#231F20"/>
<path d="M84.7656 164.709H93.1356V167.419H88.0356V171.389H92.2156V173.829H88.0356V178.319H93.5356V181.029H84.7656V164.699V164.709Z" fill="#231F20"/>
<path d="M98.3506 172.893C98.3506 170.273 99.2006 167.022 101.521 167.022C103.841 167.022 104.671 170.273 104.671 172.893C104.671 175.513 103.821 178.743 101.521 178.743C99.2206 178.743 98.3506 175.513 98.3506 172.893ZM94.8906 172.893C94.8906 178.313 97.5506 181.452 101.531 181.452C105.511 181.452 108.151 178.313 108.151 172.893C108.151 167.473 105.511 164.312 101.531 164.312C97.5506 164.312 94.8906 167.473 94.8906 172.893Z" fill="#231F20"/>
<path d="M113.448 164.711V174.181C113.448 177.251 113.938 178.741 115.597 178.741C117.017 178.741 117.748 177.611 117.748 174.581V164.711H120.597V175.081C120.597 176.531 120.578 181.451 115.538 181.451C112.518 181.451 110.188 179.561 110.188 175.081V164.711H113.458H113.448Z" fill="#231F20"/>
<path d="M123.453 164.711H126.723V178.331H132.223V181.041H123.453V164.711Z" fill="#231F20"/>
<path d="M139.149 177.771C140.199 178.341 141.339 178.741 142.469 178.741C143.329 178.741 144.499 178.421 144.499 176.951C144.499 174.311 139.039 174.041 139.039 168.891C139.039 165.611 141.239 164.301 143.389 164.301C144.609 164.301 145.829 164.511 147.029 164.801V167.891C146.029 167.421 144.959 167.011 143.889 167.011C143.249 167.011 142.299 167.351 142.299 168.411C142.299 170.871 147.959 171.191 147.959 176.521C147.959 178.171 147.319 181.441 142.939 181.441C141.369 181.441 140.029 181.241 139.129 181.041V177.761L139.149 177.771Z" fill="#231F20"/>
<path d="M149.82 164.709H158.19V167.419H153.09V171.389H157.28V173.829H153.09V178.319H158.6V181.029H149.82V164.699V164.709Z" fill="#231F20"/>
<path d="M160.744 164.709H164.964L167.524 175.119H167.554L170.164 164.709H173.824V181.039H170.854V169.609H170.814L168.194 179.949H165.824L163.234 169.309H163.194V181.029H160.734V164.699L160.744 164.709Z" fill="#231F20"/>
<path d="M176.672 164.711H179.942V181.041H176.672V164.711Z" fill="#231F20"/>
<path d="M192.984 167.993C191.814 167.403 190.594 167.022 189.344 167.022C186.384 167.022 185.454 169.843 185.454 172.783C185.454 176.443 186.894 178.743 189.684 178.743C190.854 178.743 192.124 178.243 193.194 177.573V180.573C191.804 181.183 190.314 181.452 188.624 181.452C184.644 181.452 181.984 178.313 181.984 172.893C181.984 167.473 184.644 164.312 188.624 164.312C190.244 164.312 191.654 164.473 192.994 164.853V167.993H192.984Z" fill="#231F20"/>
<path d="M197.746 172.893C197.746 170.273 198.596 167.022 200.916 167.022C203.236 167.022 204.066 170.273 204.066 172.893C204.066 175.513 203.216 178.743 200.916 178.743C198.616 178.743 197.746 175.513 197.746 172.893ZM194.266 172.893C194.266 178.313 196.926 181.452 200.906 181.452C204.886 181.452 207.526 178.313 207.526 172.893C207.526 167.473 204.886 164.312 200.906 164.312C196.926 164.312 194.266 167.473 194.266 172.893Z" fill="#231F20"/>
<path d="M209.57 164.711H212.3L217.5 174.511H217.53V164.711H219.99V181.041H217.28L212.06 171.241H212.03V181.041H209.57V164.711Z" fill="#231F20"/>
<path d="M226.1 167.421H227.76C230.66 167.421 231.2 170.471 231.2 172.751C231.2 175.481 230.49 178.331 227.68 178.331C227.17 178.331 226.66 178.261 226.1 178.171V167.421ZM222.83 181.041H228.91C232.08 181.041 234.67 178.331 234.67 172.591C234.67 166.091 231.2 164.711 229.5 164.711H222.82V181.041H222.83Z" fill="#231F20"/>
<path d="M239.979 164.711V174.181C239.979 177.251 240.469 178.741 242.129 178.741C243.549 178.741 244.279 177.611 244.279 174.581V164.711H247.129V175.081C247.129 176.531 247.109 181.451 242.069 181.451C239.049 181.451 236.719 179.561 236.719 175.081V164.711H239.989H239.979Z" fill="#231F20"/>
<path d="M260.172 167.993C259.002 167.403 257.782 167.022 256.532 167.022C253.572 167.022 252.642 169.843 252.642 172.783C252.642 176.443 254.082 178.743 256.872 178.743C258.042 178.743 259.312 178.243 260.382 177.573V180.573C258.992 181.183 257.502 181.452 255.812 181.452C251.832 181.452 249.172 178.313 249.172 172.893C249.172 167.473 251.832 164.312 255.812 164.312C257.432 164.312 258.842 164.473 260.182 164.853V167.993H260.172Z" fill="#231F20"/>
<path d="M265.44 167.441H261V164.711H273.15V167.441H268.71V181.041H265.44V167.441Z" fill="#231F20"/>
<path d="M277.376 172.893C277.376 170.273 278.226 167.022 280.546 167.022C282.866 167.022 283.696 170.273 283.696 172.893C283.696 175.513 282.856 178.743 280.546 178.743C278.236 178.743 277.376 175.513 277.376 172.893ZM273.906 172.893C273.906 178.313 276.566 181.452 280.546 181.452C284.526 181.452 287.176 178.313 287.176 172.893C287.176 167.473 284.536 164.312 280.546 164.312C276.556 164.312 273.906 167.473 273.906 172.893Z" fill="#231F20"/>
<path d="M292.271 167.421H293.271C294.731 167.421 295.101 168.171 295.101 169.271C295.101 170.471 294.491 172.071 293.351 172.071H292.261V167.421H292.271ZM289.211 181.041H292.271V174.511H293.421L296.071 181.041H300.021L296.091 173.451C297.411 172.621 298.381 170.791 298.381 168.801C298.381 165.861 296.571 164.711 295.041 164.711H289.211V181.041Z" fill="#231F20"/>
<path d="M167.437 118.66C166.137 118.66 164.297 119.56 164.297 123.15C164.297 126.74 166.127 127.64 167.437 127.64C168.747 127.64 170.577 126.74 170.577 123.15C170.577 119.56 168.737 118.66 167.437 118.66Z" fill="#30AE56"/>
<path d="M187.01 99C169.2 99 153.27 101.96 142.64 106.62C150.88 104.44 161.83 102.72 172.9 102.72C199.71 102.72 218.22 110.46 218.22 120.67C218.22 128.19 207.2 136.27 191.32 136.27C201.15 133.32 207.6 129.28 207.6 124.16C207.6 114.54 188.31 107.77 164.84 107.77C148.01 107.77 130.5 110.95 129.07 120.36C129.07 132.15 155.01 141.71 187.02 141.71C219.03 141.71 244.97 132.15 244.97 120.36C244.97 108.57 219.01 99 187.01 99ZM146.44 129.91C142.22 129.91 141.5 127.21 141.5 125.62L143.72 125.14C143.8 126.3 144.16 127.7 146.26 127.7C147.4 127.7 148.67 127.28 148.67 126.04C148.67 125.04 147.84 124.45 145.51 123.83C143.36 123.26 141.61 122.42 141.61 119.89C141.61 118.46 142.84 116.41 146.12 116.41C149.13 116.41 150.33 118.41 150.59 119.64L148.58 120.42C148.4 119.85 147.89 118.56 146.02 118.56C145.1 118.56 144.1 118.98 144.08 119.9C144.05 120.91 144.82 121.36 146.99 121.91C149.32 122.5 151.08 123.48 151.08 125.79C151.08 129.47 147.47 129.92 146.46 129.92L146.44 129.91ZM161.18 129.57H152.18V116.73H160.9V118.87H154.64V121.77H160.4V123.91H154.64V127.44H161.17V129.58L161.18 129.57ZM167.44 129.91C165.91 129.91 161.89 129.18 161.89 123.15C161.89 117.12 165.91 116.39 167.44 116.39C168.97 116.39 172.99 117.12 172.99 123.15C172.99 129.18 168.97 129.91 167.44 129.91ZM183.87 125.6C183.87 128.05 182.04 129.89 178.98 129.89C175.92 129.89 174.09 128.05 174.09 125.6V116.73H176.55V125.21C176.55 126.55 177.64 127.66 178.98 127.66C180.32 127.66 181.41 126.55 181.41 125.21V116.73H183.87V125.6ZM185.12 129.57V116.73H187.58V127.38H194V129.57H185.11H185.12Z" fill="#30AE56"/>
</g>
<defs>
<clipPath id="clip0_5597_29308">
<rect width="226.01" height="82.45" fill="white" transform="translate(74 99)"/>
</clipPath>
</defs>
</svg>
